<?xml version="1.0" encoding="UTF-8" standalone="no"?>
<svg
        width="91.042877pt"
        height="81.929695pt"
        version="1.1"
        viewBox="-74.384 642.847 91.042879 81.929694"
        id="svg4276"
        sodipodi:docname="SquirrelHead.svg"
        inkscape:version="1.2.2 (b0a8486541, 2022-12-01)"
        xmlns:inkscape="http://www.inkscape.org/namespaces/inkscape"
        xmlns:sodipodi="http://sodipodi.sourceforge.net/DTD/sodipodi-0.dtd"
        xmlns="http://www.w3.org/2000/svg"
        xmlns:svg="http://www.w3.org/2000/svg"
        xmlns:rdf="http://www.w3.org/1999/02/22-rdf-syntax-ns#"
        xmlns:cc="http://creativecommons.org/ns#"
        xmlns:dc="http://purl.org/dc/elements/1.1/">
    <sodipodi:namedview
            id="namedview4278"
            pagecolor="#ffffff"
            bordercolor="#666666"
            borderopacity="1.0"
            inkscape:showpageshadow="2"
            inkscape:pageopacity="0.0"
            inkscape:pagecheckerboard="0"
            inkscape:deskcolor="#d1d1d1"
            inkscape:document-units="pt"
            showgrid="false"
            inkscape:zoom="2.3787699"
            inkscape:cx="17.656184"
            inkscape:cy="64.949536"
            inkscape:window-width="1452"
            inkscape:window-height="749"
            inkscape:window-x="379"
            inkscape:window-y="99"
            inkscape:window-maximized="0"
            inkscape:current-layer="svg4276" />
    <!--
      Exported with Concepts: Smarter Sketching
      Version: 6.33.2 on iOS 26.5
      https://concepts.app/
      -->
    <title
            id="title4257">5C01F5D2-51F5-491C-BD80-7683B96203DB</title>
    <desc
            id="desc4259">Drawing exported from Concepts: Smarter Sketching</desc>
    <defs
            id="defs4261" />
    <g
            id="Pen"
            opacity="1"
            transform="rotate(90,-27.455743,688.35862)">
        <path
                id="STROKE_6369f320-7037-450c-83db-de0df166fa1c"
                opacity="1"
                fill="none"
                stroke="#181712"
                stroke-width="5.1"
                stroke-opacity="1"
                stroke-linecap="round"
                stroke-linejoin="round"
                d="m 4.529,683.444 q -0.091,-0.135 -0.492,-1.069 0.225,-0.47 0.529,-1.178 0.305,-0.708 0.419,-1.379 0.114,-0.672 0.255,-1.345 0.141,-0.674 0.588,-2.052 0.446,-1.378 0.518,-1.942 0.071,-0.565 0.066,-1.056 -0.004,-0.492 -0.008,-0.82 -0.003,-0.329 -0.037,-0.6 -0.034,-0.272 -0.083,-0.456 -0.049,-0.184 -0.355,-0.876 -0.306,-0.693 -0.525,-1.198 -0.22,-0.504 -0.542,-1.514 l -0.04,-0.13 -0.037,-0.044 q -0.019,-0.03 -0.284,-0.986 -0.265,-0.955 -0.375,-1.509 -0.111,-0.553 -0.151,-0.794 -0.04,-0.241 -0.09,-0.47 Q 3.836,663.797 3.769,663.485 3.703,663.172 3.635,662.876 3.567,662.58 3.452,662.092 3.338,661.604 3.302,661.43 3.266,661.256 3.24,661.106 3.214,660.956 3.188,660.835 3.162,660.714 3.143,660.58 3.124,660.447 3.106,660.353 3.088,660.26 3.058,660.164 3.027,660.069 3.02,660.023 3.014,659.977 2.662,659.022 2.65,659.003 2.359,658.433 q -0.29,-0.57 -0.476,-0.879 -0.186,-0.31 -0.361,-0.624 -0.174,-0.315 -0.414,-0.605 -0.24,-0.291 -0.392,-0.45 -0.153,-0.159 -0.219,-0.216 -0.067,-0.056 -0.173,-0.128 -0.105,-0.072 -0.534,-0.382 -0.429,-0.31 -0.7,-0.481 -0.271,-0.172 -0.427,-0.262 -0.155,-0.091 -0.36,-0.24 -0.204,-0.149 -0.507,-0.318 -0.303,-0.17 -0.667,-0.367 -0.364,-0.197 -0.757,-0.363 -0.392,-0.166 -0.484,-0.185 -0.093,-0.018 -1.246,-0.057 -1.153,-0.038 -1.624,-0.044 -0.471,-0.006 -1.188,0.147 -0.717,0.154 -1.14,0.279 -0.423,0.124 -0.788,0.218 -0.366,0.094 -0.584,0.151 -0.219,0.057 -0.264,0.072 -0.045,0.015 -0.119,0.024 -0.074,0.009 -0.228,0.05 -0.221,0.03 -0.596,0.158 l -0.625,0.187 q -0.03,0.025 -0.376,0.134 -0.347,0.109 -1.224,0.424 -0.878,0.315 -1.635,0.509 -0.757,0.194 -1.317,0.242 -0.56,0.048 -1.361,0.094 -0.801,0.046 -1.379,0.076 -0.579,0.029 -1.459,0.073 -0.88,0.043 -1.29,0.062 -0.41,0.019 -0.67,0.053 -0.26,0.034 -0.373,0.056 -0.112,0.023 -0.353,0.066 -0.241,0.044 -0.463,0.079 -0.222,0.035 -0.848,0.179 -0.626,0.143 -0.926,0.212 -0.299,0.068 -0.45,0.115 -0.151,0.046 -0.33,0.114 -0.18,0.068 -0.318,0.122 -0.137,0.053 -0.183,0.065 -0.045,0.013 -0.821,0.363 -0.776,0.349 -1.45,0.587 -0.675,0.239 -1.459,0.438 -0.784,0.199 -1.149,0.307 -0.364,0.108 -0.847,0.273 -0.482,0.165 -0.487,0.169 -0.004,0.004 -0.318,0.108 -0.313,0.103 -1.11,0.512 -0.798,0.409 -1.273,0.722 -0.474,0.313 -0.717,0.485 -0.242,0.171 -0.355,0.25 -0.113,0.078 -0.814,0.626 -0.701,0.549 -1.305,1.054 -0.603,0.505 -0.933,0.778 -0.33,0.272 -0.421,0.344 -0.09,0.072 -0.555,0.469 -0.465,0.396 -0.824,0.774 -0.359,0.378 -0.56,0.576 -0.2,0.198 -0.267,0.257 -0.067,0.058 -0.454,0.44 -0.386,0.381 -0.664,0.721 -0.277,0.34 -0.451,0.533 -0.175,0.193 -0.327,0.362 -0.153,0.17 -0.573,0.808 -0.42,0.639 -0.631,1.028 -0.21,0.388 -0.377,0.707 -0.168,0.319 -0.405,0.734 -0.236,0.414 -0.321,0.578 -0.085,0.165 -0.105,0.195 -0.021,0.03 -0.149,0.262 -0.128,0.232 -0.139,0.265 -0.012,0.033 -0.069,0.157 -0.058,0.124 -0.17,0.313 -0.113,0.189 -0.189,0.333 -0.077,0.144 -0.201,0.362 -0.124,0.219 -0.591,0.965 -0.467,0.746 -0.725,1.16 -0.258,0.414 -0.446,0.647 -0.187,0.232 -0.293,0.366 -0.106,0.133 -0.213,0.271 -0.106,0.137 -0.188,0.237 -0.082,0.099 -0.242,0.279 -0.161,0.179 -0.181,0.209 -0.021,0.03 -0.101,0.121 -0.08,0.09 -0.219,0.237 -0.14,0.147 -0.222,0.238 -0.081,0.09 -0.086,0.099 -0.005,0.009 -0.151,0.19 -0.146,0.18 -0.155,0.196 -0.008,0.016 -0.083,0.116 -0.075,0.1 -0.269,0.402 -0.193,0.302 -0.244,0.384 -0.05,0.081 -0.282,0.518 -0.232,0.436 -0.594,1.198 -0.362,0.761 -0.662,1.533 -0.3,0.773 -0.423,1.352 -0.124,0.579 -0.231,1.099 -0.108,0.52 -0.238,1.812 -0.13,1.292 -0.173,2.246 -0.044,0.953 -0.117,1.965 -0.074,1.011 -0.111,1.8 -0.038,0.79 -0.037,2.057 0.001,1.267 0.106,3.275 l 0.271,0.323" />
        <path
                id="STROKE_b690ea72-b3cc-46b0-adb5-c831ffe2cd86"
                opacity="1"
                fill="none"
                stroke="#181712"
                stroke-width="5.1"
                stroke-opacity="1"
                stroke-linecap="round"
                stroke-linejoin="round"
                d="m -55.562,680.413 q -0.239,0.077 -0.829,0.303 -0.59,0.226 -1.783,0.258 -1.192,0.031 -2.358,0.116 -1.166,0.086 -1.785,0.167 -0.619,0.081 -1.114,0.158 -0.494,0.076 -0.729,0.129 -0.235,0.053 -0.533,0.118 -0.298,0.066 -0.755,0.174 -0.456,0.108 -0.8,0.249 -0.343,0.142 -0.48,0.213 -0.137,0.072 -0.396,0.231 -0.259,0.158 -0.758,0.542 -0.5,0.384 -0.732,0.584 -0.233,0.2 -0.667,0.72 -0.435,0.52 -0.66,0.855 -0.225,0.335 -0.311,0.563 -0.085,0.228 -0.121,0.372 -0.036,0.143 -0.036,0.181 0,0.039 -0.006,0.463 -0.005,0.425 0.015,0.61 0.019,0.186 0.275,0.508 0.255,0.322 0.7,0.657 0.445,0.335 1.245,0.834 0.8,0.498 1.408,0.817 0.609,0.319 1.187,0.614 0.579,0.295 1.226,0.679 0.647,0.385 0.967,0.556 0.319,0.172 0.593,0.295 0.273,0.123 0.749,0.367 0.476,0.245 0.939,0.412 0.463,0.168 0.771,0.231 0.308,0.064 0.585,0.122 0.277,0.058 0.783,0.39" />
        <path
                id="STROKE_eb403200-024e-4d90-80a3-d2fae835bc0b"
                opacity="1"
                fill="none"
                stroke="#181712"
                stroke-width="5.1"
                stroke-opacity="1"
                stroke-linecap="round"
                stroke-linejoin="round"
                d="m -45.099,699.197 q -0.276,-0.105 -0.985,-0.376 -0.709,-0.27 -1.638,-0.23 -0.928,0.04 -2.361,0.192 -1.434,0.153 -2.204,0.237 -0.77,0.083 -1.401,0.137 -0.632,0.055 -1.521,0.155 -0.888,0.1 -1.579,0.227 -0.69,0.126 -1.883,0.495 -1.193,0.368 -1.963,0.633 -0.769,0.265 -1.757,0.82 -0.988,0.555 -1.496,0.929 -0.509,0.375 -0.661,0.504 -0.151,0.129 -0.393,0.342 -0.242,0.213 -0.897,1.383 0.018,0.07 0.015,0.247 -0.004,0.177 0.37,0.756 0.374,0.58 0.924,1.063 0.55,0.484 1.246,0.94 0.697,0.455 1.224,0.735 0.527,0.281 1.406,0.797 0.879,0.516 1.538,0.875 0.659,0.359 1.448,0.723 0.788,0.363 1.515,0.707 0.728,0.343 1.228,0.589 0.501,0.247 1.364,0.684 0.863,0.438 1.531,0.706 0.668,0.267 1.808,0.588 1.14,0.321 1.884,0.445 0.745,0.124 1.469,0.092 0.725,-0.032 1.067,-0.067 0.341,-0.035 1.213,-0.124 0.871,-0.09 5.802,-0.6" />
        <path
                id="STROKE_38e5703b-5824-4e63-86b8-16f8c7937a9d"
                opacity="1"
                fill="none"
                stroke="#181712"
                stroke-width="5.1"
                stroke-opacity="1"
                stroke-linecap="round"
                stroke-linejoin="round"
                d="m -48.611,716.293 0.105,0.351 q 0.142,0.121 1.166,0.759 1.025,0.638 1.934,1.172 0.91,0.534 1.386,0.823 0.477,0.288 0.896,0.57 0.419,0.282 1.342,0.932 0.923,0.651 1.403,0.929 0.48,0.278 0.919,0.543 0.438,0.266 0.754,0.46 0.316,0.194 0.505,0.319 0.188,0.126 0.34,0.231 0.152,0.105 0.762,0.699 0.611,0.594 1.349,1.175 0.738,0.581 1.251,1.107 0.513,0.527 1.256,1.273 0.743,0.746 1.315,1.176 0.573,0.431 0.947,0.697 0.375,0.266 0.858,0.565 0.484,0.299 0.828,0.473 0.344,0.174 0.562,0.256 0.219,0.082 0.328,0.133 0.109,0.051 0.217,0.09 0.109,0.039 0.308,0.115 0.199,0.076 0.439,0.188 0.241,0.113 0.729,0.374 0.489,0.262 0.764,0.421 0.276,0.158 0.614,0.28 0.338,0.121 0.568,0.172 0.231,0.05 0.409,0.083 0.177,0.033 0.33,0.047 0.152,0.014 0.444,0.026 0.292,0.012 0.651,-0.006 0.359,-0.017 0.613,-0.055 0.255,-0.038 0.334,-0.053 0.078,-0.015 0.171,-0.038 0.092,-0.023 0.278,-0.076 0.185,-0.053 0.189,-0.056 0.004,-0.003 0.117,-0.046 0.113,-0.043 0.23,-0.084 0.117,-0.042 0.378,-0.164 0.26,-0.123 0.469,-0.212 0.208,-0.09 0.556,-0.245 0.349,-0.155 0.541,-0.244 0.192,-0.089 0.445,-0.234 0.254,-0.144 1.335,-0.687 1.081,-0.543 2.082,-1.066 1.001,-0.523 1.775,-0.972 0.773,-0.449 1.139,-0.679 0.366,-0.23 0.62,-0.398 0.253,-0.167 2.174,-1.513 1.92,-1.345 2.929,-2.174 1.008,-0.828 1.886,-1.668 0.878,-0.839 2.132,-2.154 1.253,-1.314 1.93,-2.142 0.677,-0.828 1.019,-1.275 0.342,-0.448 1.111,-1.611 0.769,-1.163 1.2,-1.941 0.43,-0.778 0.927,-1.929 0.496,-1.151 1.009,-3.031 0.514,-1.881 0.706,-3.451 0.193,-1.569 0.198,-3.354 0.005,-1.784 -0.106,-3.03 -0.111,-1.247 -0.505,-3.735" />
        <path
                id="STROKE_88aeabd2-c8a2-48d8-997a-93cbf65882f3"
                opacity="1"
                fill="none"
                stroke="#181712"
                stroke-width="5.1"
                stroke-opacity="1"
                stroke-linecap="round"
                stroke-linejoin="round"
                d="m 2.958,681.943 q 0.092,0.123 0.579,0.961 0.487,0.838 0.762,1.415 0.274,0.577 0.289,0.956 0.015,0.378 0.056,1.37 0.042,0.993 -0.017,1.707 -0.06,0.715 -0.139,1.483 -0.079,0.768 -0.667,3.666 -0.018,0.019 -0.197,0.128" />
        <path
                id="STROKE_abce014f-d130-45a3-a172-bac057aca68d"
                opacity="1"
                fill="none"
                stroke="#181712"
                stroke-width="3.4"
                stroke-opacity="1"
                stroke-linecap="round"
                stroke-linejoin="round"
                d="m -30.482,691.146 q -0.086,-0.028 -0.684,-0.361 0.01,-0.212 0.057,-0.693 0.046,-0.482 0.059,-0.982 0.013,-0.5 0.054,-0.897 0.042,-0.398 0.195,-0.907 0.153,-0.51 0.406,-0.778 0.254,-0.268 0.449,-0.424 0.194,-0.157 0.288,-0.227 0.095,-0.07 0.332,-0.237 0.237,-0.167 0.346,-0.228 0.109,-0.061 0.447,-0.138 0.338,-0.077 0.545,-0.064 0.206,0.013 0.327,0.039 0.121,0.027 0.308,0.069 0.187,0.042 0.526,0.115 0.34,0.072 0.659,0.173 0.319,0.102 0.456,0.163 0.138,0.062 0.274,0.211 0.008,0.007 -0.113,0.685 -0.122,0.678 -0.239,1.115 -0.116,0.437 -0.227,0.726 -0.11,0.289 -0.25,0.49 -0.139,0.201 -0.207,0.301 -0.068,0.1 -0.155,0.201 -0.087,0.101 -0.211,0.238 -0.124,0.137 -0.257,0.264 -0.133,0.127 -0.397,0.323 -0.264,0.196 -0.402,0.261 -0.138,0.066 -0.437,0.098 -0.299,0.032 -0.489,-10e-4 -0.189,-0.032 -0.608,-0.146 -0.42,-0.114 -0.48,-0.132 -0.06,-0.018 -0.419,-0.211" />
        <path
                id="STROKE_1ab34245-aba5-4131-8344-5ba3537cec97"
                opacity="1"
                fill="none"
                stroke="#181712"
                stroke-width="3.4"
                stroke-opacity="1"
                stroke-linecap="round"
                stroke-linejoin="round"
                d="m -27.583,688.073 q -0.122,-0.05 -0.65,-0.263 0.163,-0.016 0.709,-1.348 -0.014,-0.007 -0.165,-0.093 -0.151,-0.085 -0.435,-0.085 -0.285,0 -0.619,0.194 -0.334,0.194 -0.619,0.499 -0.285,0.306 -0.724,2.467 0.057,0.081 0.267,0.204 0.211,0.123 0.332,0.132 0.121,0.01 0.243,-0.032 0.122,-0.042 0.447,-0.4 0.325,-0.358 0.514,-0.636 0.188,-0.278 0.471,-0.909 0.282,-0.631 0.317,-1.085 -0.166,-0.038 -0.428,0.161 -0.262,0.2 -0.495,0.57 -0.234,0.37 -0.416,0.741 -0.182,0.372 -0.237,0.594 -0.055,0.221 -0.058,0.354 -10e-4,0.054 0.522,0.036" />
        <path
                id="STROKE_2861fa1d-be31-46b3-93bb-0cac0c018ae9"
                opacity="1"
                fill="none"
                stroke="#181712"
                stroke-width="3.4"
                stroke-opacity="1"
                stroke-linecap="round"
                stroke-linejoin="round"
                d="m -25.859,686.446 q 0.015,0.057 0.176,0.582 0.16,0.526 0.533,1.917 l -0.023,0.019 q 0.012,0.025 -0.179,0.3 -0.192,0.275 -1.313,1.711 -0.63,0.599 -0.83,0.724 -0.2,0.125 -0.446,0.22 -0.247,0.096 -0.264,0.103 -0.018,0.007 -0.147,0.045 -0.13,0.038 -0.245,0.062 -0.114,0.024 -0.16,0.024 -0.046,0 -0.134,0.018 -0.088,0.018 -1.196,-0.251" />
        <path
                id="STROKE_574990c2-ec3c-4d40-aaef-a8fc7ea9d98d"
                opacity="1"
                fill="none"
                stroke="#181712"
                stroke-width="1.756"
                stroke-opacity="1"
                stroke-linecap="round"
                stroke-linejoin="round"
                d="m -12.278,654.129 q -0.045,-0.069 -1.02,-1.457 -0.976,-1.387 -1.515,-2.184 -0.539,-0.796 -0.807,-1.297 -0.267,-0.501 -0.446,-0.877 -0.179,-0.376 -0.716,-1.003" />
        <path
                id="STROKE_7a1a112a-dbf5-4e3b-91c9-54e8c104ebac"
                opacity="1"
                fill="none"
                stroke="#181712"
                stroke-width="1.756"
                stroke-opacity="1"
                stroke-linecap="round"
                stroke-linejoin="round"
                d="m -7.149,651.189 q -0.025,-0.153 -0.185,-0.771 -0.16,-0.619 -0.287,-1.284 -0.128,-0.666 -0.148,-1.295 -0.021,-0.63 -0.064,-1.133 -0.044,-0.504 -0.192,-1.584" />
        <path
                id="STROKE_35f7490f-ff75-4428-b9c6-1c752288a597"
                opacity="1"
                fill="none"
                stroke="#181712"
                stroke-width="1.756"
                stroke-opacity="1"
                stroke-linecap="round"
                stroke-linejoin="round"
                d="m -10.843,666.122 q -0.143,0.299 -0.367,1.449 -0.225,1.15 -0.29,1.882 -0.066,0.732 -0.213,1.226 -0.148,0.494 -0.492,2.2 l -0.12,0.089" />
        <path
                id="STROKE_b0543a90-eb09-4792-9015-f17ad22c3e84"
                opacity="1"
                fill="none"
                stroke="#181712"
                stroke-width="1.756"
                stroke-opacity="1"
                stroke-linecap="round"
                stroke-linejoin="round"
                d="m -4.42,663.37 q 0.136,0.26 0.753,1.685 0.616,1.425 1.128,2.692 0.512,1.267 0.754,1.868 0.242,0.601 0.427,1.107 0.185,0.507 0.89,1.399" />
    </g>
    <metadata
            id="metadata4397">
        <rdf:RDF>
            <cc:Work
                    rdf:about="">
                <dc:title>5C01F5D2-51F5-491C-BD80-7683B96203DB</dc:title>
            </cc:Work>
        </rdf:RDF>
    </metadata>
    <path
            style="fill:#ffffff;stroke:#ffffff;stroke-width:0;stroke-linecap:round"
            d="m 79.978312,101.83336 c -0.867045,-0.28141 -2.4312,-0.70982 -3.475902,-0.95201 -1.870809,-0.43372 -1.905726,-0.45337 -2.3151,-1.302752 -0.290175,-0.60207 -0.694382,-1.009798 -1.339041,-1.350701 -1.450852,-0.767228 -2.284256,-0.656124 -4.614731,0.615207 l -2.022846,1.103512 -2.627409,-0.0447 c -2.487231,-0.04231 -3.198138,-0.153157 -7.282121,-1.135425 -0.942224,-0.226621 -1.207662,-0.211897 -2.062002,0.114378 -0.634463,0.242304 -1.141786,0.620426 -1.437331,1.071285 -0.581026,0.886366 -0.79038,0.924886 -5.860567,1.078326 -4.774886,0.14451 -6.402997,-0.0334 -10.135714,-1.107833 C 32.259791,98.614242 28.254698,96.17599 23.484994,91.813263 20.216399,88.82356 18.260698,86.5869 15.379328,82.543123 12.886582,79.044749 11.780076,77.161444 9.0661432,71.797892 6.58298,66.890415 6.4243606,65.860189 7.7870882,63.490502 8.082358,62.97705 8.6140719,61.860027 8.968675,61.008234 c 0.8587983,-2.062928 2.50168,-4.328996 4.99057,-6.883621 3.141206,-3.224168 4.893733,-5.335806 6.126144,-7.381452 1.664636,-2.763083 4.218536,-6.429312 4.372664,-6.277141 0.07397,0.07303 0.285932,1.550341 0.471029,3.282913 0.365325,3.41957 0.531962,3.843491 1.868346,4.753026 0.516965,0.351844 0.996378,0.472732 1.872407,0.472147 1.383339,-8.4e-4 2.336512,-0.489898 2.965297,-1.521189 0.549921,-0.901943 0.537053,-1.988435 -0.09681,-8.173283 -0.467051,-4.557209 -0.484133,-5.084486 -0.207543,-6.406445 0.476465,-2.277256 0.870385,-3.310279 2.746817,-7.203303 0.968139,-2.008595 1.760255,-3.703343 1.760255,-3.766107 0,-0.227513 3.888312,-6.999404 4.340968,-7.560234 0.458668,-0.568281 0.469121,-0.570345 0.787607,-0.15554 0.766864,0.998787 1.852526,3.366754 2.516513,5.488838 0.732525,2.341128 0.939954,3.634249 1.496582,9.329746 0.175124,1.791892 0.362639,3.653152 0.416698,4.136132 0.06255,0.558789 -0.05237,1.316055 -0.315991,2.082283 -0.542259,1.576103 -0.523236,2.722866 0.06211,3.743856 0.68485,1.194558 1.632314,1.641312 3.280443,1.546814 1.254636,-0.07194 1.390192,-0.131022 2.13676,-0.931385 0.580502,-0.622328 0.944764,-1.321889 1.340338,-2.574097 0.633136,-2.004234 0.67079,-3.160118 0.229909,-7.057736 -0.17,-1.502878 -0.310934,-2.865565 -0.313189,-3.028194 -0.0034,-0.248945 0.685373,-0.274768 4.357397,-0.163346 5.384495,0.163384 8.644806,0.467601 10.740992,1.002233 2.447124,0.624138 5.557026,2.236179 7.283029,3.775212 1.909973,1.703073 4.65535,3.498933 8.828092,5.774807 1.849696,1.008851 3.836017,2.194693 4.414047,2.635204 2.228548,1.698359 7.177201,7.181027 9.28565,10.287677 1.111414,1.63759 1.71262,3.029902 2.555955,5.919256 0.45009,1.542058 1.166159,3.642164 1.591279,4.666904 1.20843,2.912943 1.57544,4.795592 1.8085,9.277047 0.26819,5.156995 0.48278,6.525686 1.49207,9.516547 2.16033,6.401802 2.75226,10.294169 1.83845,12.089124 -0.5948,1.168339 -2.33635,3.735925 -2.83372,4.177775 -0.79513,0.706378 -3.579205,2.041625 -4.703069,2.255599 -6.325648,1.204341 -9.683787,2.100609 -12.758487,3.405149 -2.322627,0.98545 -3.424039,1.0411 -5.738468,0.28991 z m 5.532233,-4.474351 c 0.483254,-0.324926 2.486617,-1.240412 4.451919,-2.034413 5.823692,-2.352829 7.00614,-2.941219 7.162464,-3.564067 0.08762,-0.349111 0.0095,-0.732359 -0.221112,-1.084266 -0.302844,-0.462201 -0.472778,-0.52924 -1.126681,-0.444473 -0.761915,0.09877 -8.160775,3.129592 -10.706355,4.385685 -2.011229,0.992422 -2.621433,2.019878 -1.729386,2.911925 0.572197,0.572197 1.129876,0.528391 2.169151,-0.170391 z M 93.10034,83.746766 c 0.453448,-0.453447 0.414767,-1.419839 -0.07456,-1.862671 -0.246011,-0.222636 -1.2975,-0.527371 -2.679956,-0.776683 -1.251303,-0.225661 -3.220963,-0.611871 -4.377023,-0.858248 -3.742355,-0.797564 -4.098757,-0.747094 -4.098757,0.580399 0,1.058744 0.618475,1.396417 3.589866,1.959968 1.43595,0.272343 3.414805,0.661712 4.397455,0.865269 2.31077,0.478676 2.841221,0.493717 3.242973,0.09197 z M 62.922366,65.906373 c 0.652518,-0.167375 1.784355,-0.285608 2.515193,-0.262741 1.282923,0.04014 1.353203,0.01499 2.035974,-0.728934 0.862354,-0.939576 1.372418,-2.489419 1.516402,-4.607625 0.08911,-1.310864 0.03177,-1.767884 -0.322141,-2.56797 -0.581906,-1.315495 -2.247593,-3.055253 -3.402969,-3.554297 -1.032078,-0.445787 -5.63481,-0.957089 -6.549373,-0.727548 -0.292054,0.0733 -1.07227,0.645104 -1.733814,1.270675 -0.891562,0.843081 -1.280857,1.396743 -1.504435,2.139631 -0.669157,2.223446 -0.105965,4.452194 1.55357,6.14801 1.10006,1.12411 3.492221,2.884262 4.135295,3.042747 0.231211,0.05698 0.454024,0.114578 0.495142,0.127988 0.04112,0.01341 0.608636,-0.11256 1.261156,-0.279936 z"
            id="path4468"
            transform="matrix(0.75,0,0,0.75,-74.384,642.847)" />
    <path
            style="fill:#ffffff;stroke:#ffffff;stroke-width:0;stroke-linecap:round"
            d="m 67.471848,20.690393 c -1.58586,-0.344783 -5.000593,-0.721191 -6.576765,-0.724959 -1.746726,-0.0042 -2.210824,-0.165219 -2.043804,-0.709203 0.07497,-0.244193 0.224931,-0.798573 0.333236,-1.231957 0.323773,-1.295576 3.636376,-7.730109 5.191369,-10.0839229 0.61116,-0.9251213 0.854078,-0.8636449 2.044354,0.5173752 1.019986,1.183441 1.252979,1.6673587 1.645746,3.4181597 0.479423,2.137083 1.094773,9.178956 0.796599,9.116039 -0.07127,-0.01504 -0.697099,-0.150727 -1.390735,-0.301532 z"
            id="path4470"
            transform="matrix(0.75,0,0,0.75,-74.384,642.847)" />
</svg>